<svg width="21" height="10" viewBox="0 0 21 10" fill="none" xmlns="http://www.w3.org/2000/svg">
<path d="M9.13234 10H5.13689C3.81232 10 2.54199 9.47322 1.60538 8.53553C0.668763 7.59785 0.142578 6.32608 0.142578 5C0.142578 3.67392 0.668763 2.40215 1.60538 1.46447C2.54199 0.526784 3.81232 0 5.13689 0H9.13234V2H5.13689C4.34215 2 3.57995 2.31607 3.01798 2.87868C2.45602 3.44129 2.1403 4.20435 2.1403 5C2.1403 5.79565 2.45602 6.55871 3.01798 7.12132C3.57995 7.68393 4.34215 8 5.13689 8H9.13234V10ZM15.1255 0H11.1301V2H15.1255C15.9203 2 16.6825 2.31607 17.2444 2.87868C17.8064 3.44129 18.1221 4.20435 18.1221 5C18.1221 5.79565 17.8064 6.55871 17.2444 7.12132C16.6825 7.68393 15.9203 8 15.1255 8H11.1301V10H15.1255C16.4501 10 17.7204 9.47322 18.657 8.53553C19.5937 7.59785 20.1198 6.32608 20.1198 5C20.1198 3.67392 19.5937 2.40215 18.657 1.46447C17.7204 0.526784 16.4501 0 15.1255 0ZM14.1267 4H6.13576V6H14.1267V4Z" fill="#344563" fill-opacity="0.7"/>
</svg>
